<svg id="Camada_1" data-name="Camada 1" xmlns="http://www.w3.org/2000/svg" viewBox="0 0 432.84 95.49"><defs><style>.cls-1{fill:#005693;}</style></defs><path class="cls-1" d="M48.25,15.84a7.92,7.92,0,1,1,7.92-7.92A7.93,7.93,0,0,1,48.25,15.84Zm0-13.28A5.36,5.36,0,1,0,53.6,7.92,5.37,5.37,0,0,0,48.25,2.56Z"/><path class="cls-1" d="M86.38,54.49a15.39,15.39,0,0,0-18.56.11,11.58,11.58,0,0,1-14.8.11,1.38,1.38,0,0,0-.26-.22c-.13-.1-.27-.18-.4-.27C44.5,48.4,37,51.9,34.12,54.63l-.11.13a12.28,12.28,0,0,1-6.92,2.59l.14-.38,6-15.63h3.25l5-18.42L51.7,24.18V40.93l5,1.85v6.46a13.71,13.71,0,0,1-3.9-2.19c-8-6.27-15.71-2.68-18.66.1a1.6,1.6,0,0,0,2.19,2.33c.27-.25,6.69-6,14.5.09a15,15,0,0,0,9.38,3.48,16.17,16.17,0,0,0,9.72-3.51c.27-.22,6.75-5.44,14.63.08A1.6,1.6,0,1,0,86.38,47a15.39,15.39,0,0,0-18.56.11,12.17,12.17,0,0,1-7.94,2.76V40.55l-5-1.85V21.35l-15.75-2L34.06,38.14h-3L24.25,55.81,23.8,57a13.36,13.36,0,0,1-4.63-2.42c-8-6.28-15.71-2.69-18.67.09A1.6,1.6,0,0,0,2.69,57c.27-.25,6.69-6,14.5.09a15,15,0,0,0,9.38,3.48A16.24,16.24,0,0,0,36.29,57a12,12,0,0,1,14.19-.22l.33.25a15,15,0,0,0,9.38,3.48A16.24,16.24,0,0,0,69.91,57c.27-.23,6.75-5.44,14.63.08a1.6,1.6,0,0,0,1.84-2.62Z"/><path class="cls-1" d="M87.59,62.34A15.43,15.43,0,0,0,69,62.45a11.56,11.56,0,0,1-14.8.12,1.94,1.94,0,0,0-.26-.23l-.4-.26c-7.86-5.83-15.34-2.32-18.24.41l-.11.13a11.57,11.57,0,0,1-14.84-.22c-8-6.28-15.71-2.69-18.67.09a1.6,1.6,0,1,0,2.2,2.33c.26-.25,6.62-6.07,14.49.1l.38.28A22.65,22.65,0,0,0,40.09,95.49c.73,0,1.47,0,2.21-.11A22.66,22.66,0,0,0,62.66,70.64L59.47,71a19.45,19.45,0,1,1-37.9-4,14,14,0,0,0,6.21,1.47,16.26,16.26,0,0,0,9.72-3.5,12,12,0,0,1,14.19-.22l.33.25a15,15,0,0,0,9.38,3.47,16.26,16.26,0,0,0,9.72-3.5c.27-.23,6.75-5.44,14.63.08a1.6,1.6,0,0,0,1.84-2.63Z"/><path class="cls-1" d="M108.69,73.81a2.47,2.47,0,0,1,2-4A2.43,2.43,0,0,1,112.78,71a7.16,7.16,0,0,0,.87,1.12,9.43,9.43,0,0,0,6.75,3.5,9.64,9.64,0,0,0,7.23-2.34A9.9,9.9,0,0,0,122,55.83a12.42,12.42,0,0,1-11.35-13.39A12.54,12.54,0,0,1,123.07,31a12.34,12.34,0,0,1,9.42,4.44,12,12,0,0,1,1.21,1.67,2.43,2.43,0,0,1,.38,1.33,2.49,2.49,0,0,1-2.48,2.48,2,2,0,0,1-1.74-.74c-.37-.5-.76-1-1.15-1.52a7.43,7.43,0,1,0-11.33,9.61,7.13,7.13,0,0,0,5,2.6,14.57,14.57,0,0,1,10.17,5.21,14.25,14.25,0,0,1,3.5,9.43c0,.47,0,.95-.06,1.42a14.89,14.89,0,0,1-14.7,13.67,15,15,0,0,1-11.47-5.27A11.58,11.58,0,0,1,108.69,73.81Z"/><path class="cls-1" d="M156.23,33.48A2.49,2.49,0,0,1,158.71,31a2.42,2.42,0,0,1,1.75.73,2.38,2.38,0,0,1,.73,1.75V78.12a2.35,2.35,0,0,1-.73,1.75,2.46,2.46,0,0,1-3.5,0,2.35,2.35,0,0,1-.73-1.75Z"/><path class="cls-1" d="M203.83,79.08,186.29,44V78.12a2.49,2.49,0,0,1-2.48,2.48,2.49,2.49,0,0,1-2.48-2.48V33.48A2.49,2.49,0,0,1,186,32.3l20.12,40.27L226.25,32.3a2.35,2.35,0,0,1,2.2-1.3,2.49,2.49,0,0,1,2.48,2.48V78.12a2.47,2.47,0,0,1-4.23,1.75,2.35,2.35,0,0,1-.73-1.75V44l-17.7,35.4a2.25,2.25,0,0,1-2.14,1.21A2.42,2.42,0,0,1,203.83,79.08Z"/><path class="cls-1" d="M251.07,31H261a16.15,16.15,0,0,1,16.12,16.12A16.13,16.13,0,0,1,261,63.24h-7.44V78.12a2.49,2.49,0,0,1-5,0V33.48A2.49,2.49,0,0,1,251.07,31Zm2.48,5V58.28H261a11.16,11.16,0,0,0,11.16-11.16A11.16,11.16,0,0,0,261,36Z"/><path class="cls-1" d="M337.13,55.8a24.8,24.8,0,0,1-49.6,0,24.8,24.8,0,0,1,49.6,0ZM312.33,36A19.85,19.85,0,0,0,292.49,55.8a19.84,19.84,0,1,0,39.68,0A19.85,19.85,0,0,0,312.33,36Z"/><path class="cls-1" d="M353.65,31h12.4a14.89,14.89,0,0,1,14.88,14.88,15,15,0,0,1-8.71,13.58L383,76.76a2.42,2.42,0,0,1,.4,1.36,2.49,2.49,0,0,1-2.48,2.48,2.51,2.51,0,0,1-2.17-1.27l-11.63-18.6q-.53,0-1.08,0h-9.92V78.12a2.35,2.35,0,0,1-.73,1.75,2.46,2.46,0,0,1-3.5,0,2.35,2.35,0,0,1-.73-1.75V33.48A2.49,2.49,0,0,1,353.65,31Zm2.48,5V55.8h9.92A9.9,9.9,0,0,0,376,45.88,9.9,9.9,0,0,0,366.05,36Z"/><path class="cls-1" d="M398.12,36a2.47,2.47,0,0,1-1.75-4.23,2.4,2.4,0,0,1,1.75-.73h32.24a2.49,2.49,0,0,1,2.48,2.48A2.49,2.49,0,0,1,430.36,36H416.72V78.12a2.48,2.48,0,0,1-5,0V36Z"/></svg>