<?xml version="1.0" encoding="UTF-8" standalone="no"?>
<!-- Created with Inkscape (http://www.inkscape.org/) -->

<svg
   width="77.180084mm"
   height="83.527313mm"
   viewBox="0 0 77.180085 83.527313"
   version="1.1"
   id="svg5"
   xml:space="preserve"
   sodipodi:docname="simport_logo_simple.svg"
   xmlns:inkscape="http://www.inkscape.org/namespaces/inkscape"
   xmlns:sodipodi="http://sodipodi.sourceforge.net/DTD/sodipodi-0.dtd"
   xmlns="http://www.w3.org/2000/svg"
   xmlns:svg="http://www.w3.org/2000/svg"><sodipodi:namedview
     id="namedview7"
     pagecolor="#ffffff"
     bordercolor="#000000"
     borderopacity="0.25"
     inkscape:showpageshadow="2"
     inkscape:pageopacity="0.0"
     inkscape:pagecheckerboard="0"
     inkscape:deskcolor="#d1d1d1"
     inkscape:document-units="mm"
     showgrid="false" /><defs
     id="defs2"><style
       id="style257">.cls-1{fill:#005693;}</style></defs><g
     inkscape:label="Layer 1"
     inkscape:groupmode="layer"
     id="layer1"
     transform="translate(-28.000595,-26.501586)"><g
       id="g295"
       transform="matrix(0.26458333,0,0,0.26458333,27.990105,26.501586)"
       inkscape:export-filename="g295.svg"
       inkscape:export-xdpi="205.56627"
       inkscape:export-ydpi="205.56627"><path
         class="cls-1"
         d="m 159.42507,52.367677 a 26.183838,26.183838 0 1 1 26.18384,-26.183839 26.216899,26.216899 0 0 1 -26.18384,26.183839 z m 0,-43.9042141 A 17.720375,17.720375 0 1 0 177.11239,26.183838 17.753436,17.753436 0 0 0 159.42507,8.4634629 Z"
         id="path261"
         style="stroke-width:3.30604"
         inkscape:export-filename="path261.svg"
         inkscape:export-xdpi="96"
         inkscape:export-ydpi="96" /><path
         class="cls-1"
         d="m 285.48438,180.14613 a 50.879959,50.879959 0 0 0 -61.3601,0.36366 38.283945,38.283945 0 0 1 -48.9294,0.36367 4.5623355,4.5623355 0 0 0 -0.85957,-0.72733 c -0.42978,-0.3306 -0.89263,-0.59509 -1.32241,-0.89263 -25.98548,-19.24115 -50.78078,-7.67001 -60.30218,1.35548 l -0.36366,0.42978 a 40.598174,40.598174 0 0 1 -22.877799,8.56264 l 0.462846,-1.25629 19.836243,-51.67341 h 10.74463 l 16.5302,-60.897259 33.78773,4.165611 v 55.376178 l 16.5302,6.11617 v 21.35702 a 45.325811,45.325811 0 0 1 -12.89356,-7.24023 c -26.44832,-20.72887 -51.93789,-8.86019 -61.69071,0.3306 a 5.2896643,5.2896643 0 0 0 7.24023,7.70308 c 0.89263,-0.82651 22.11741,-19.83624 47.93759,0.29754 a 49.590603,49.590603 0 0 0 31.01065,11.50502 53.45867,53.45867 0 0 0 32.13471,-11.6042 c 0.89263,-0.72733 22.31577,-17.98486 48.36737,0.26448 a 5.2896643,5.2896643 0 1 0 6.01699,-8.66182 50.879959,50.879959 0 0 0 -61.3601,0.36366 40.234509,40.234509 0 0 1 -26.24996,9.12467 v -30.81229 l -16.5302,-6.11617 V 70.583958 l -52.07014,-6.61208 -16.76162,62.120492 h -9.91812 l -22.514133,58.41773 -1.487718,3.93419 A 44.168697,44.168697 0 0 1 63.285423,180.44367 C 36.837101,159.68174 11.347531,171.55043 1.5616523,180.74122 a 5.2896643,5.2896643 0 0 0 7.2402281,7.70307 c 0.8926308,-0.82651 22.1174086,-19.83624 47.9375826,0.29754 a 49.590603,49.590603 0 0 0 31.010657,11.50502 53.690093,53.690093 0 0 0 32.13471,-11.80256 39.672482,39.672482 0 0 1 46.91271,-0.72733 l 1.09099,0.82651 a 49.590603,49.590603 0 0 0 31.01066,11.50502 53.690093,53.690093 0 0 0 32.13471,-11.6042 c 0.89263,-0.76039 22.31577,-17.98486 48.36737,0.26448 a 5.2922467,5.2922467 0 0 0 6.08311,-8.66182 z"
         id="path263"
         style="stroke-width:3.30604" /><path
         class="cls-1"
         d="m 289.48469,206.09855 a 51.0122,51.0122 0 0 0 -61.45928,0.36366 38.217825,38.217825 0 0 1 -48.9294,0.39672 6.413718,6.413718 0 0 0 -0.85957,-0.76038 l -1.32242,-0.85957 c -25.98547,-19.27422 -50.71465,-7.67002 -60.30217,1.35547 l -0.36366,0.42979 A 38.250885,38.250885 0 0 1 67.18655,206.29691 C 40.738229,185.53498 15.248659,197.40366 5.4627798,206.59445 a 5.2971257,5.2971257 0 1 0 7.2732882,7.70308 c 0.859571,-0.82651 21.885986,-20.06767 47.904523,0.3306 l 1.256295,0.92569 a 74.88181,74.88181 0 0 0 70.550894,100.13996 c 2.41341,0 4.85988,0 7.30635,-0.36367 a 74.914871,74.914871 0 0 0 67.31098,-81.79143 l -10.54627,1.19017 a 64.302482,64.302482 0 1 1 -125.298921,-13.22416 46.284563,46.284563 0 0 0 20.53051,4.85988 53.756214,53.756214 0 0 0 32.134711,-11.57114 39.672482,39.672482 0 0 1 46.91271,-0.72733 l 1.09099,0.82651 a 49.590603,49.590603 0 0 0 31.01066,11.47196 53.756214,53.756214 0 0 0 32.13471,-11.57114 c 0.89263,-0.76039 22.31577,-17.98486 48.36737,0.26448 a 5.3057826,5.3057826 0 0 0 6.08311,-8.69488 z"
         id="path265"
         style="stroke-width:3.30604" /></g></g></svg>
